<?xml version="1.0" standalone="no"?>
<!DOCTYPE svg PUBLIC "-//W3C//DTD SVG 20010904//EN"
 "http://www.w3.org/TR/2001/REC-SVG-20010904/DTD/svg10.dtd">
<svg version="1.0" xmlns="http://www.w3.org/2000/svg"
 width="2560.000000pt" height="928.000000pt" viewBox="0 0 2560.000000 928.000000"
 preserveAspectRatio="xMidYMid meet">

<g transform="translate(0.000000,928.000000) scale(0.100000,-0.100000)"
fill="#de1212" stroke="none">
<path d="M18730 7705 l0 -1575 550 0 550 0 0 1575 0 1575 -550 0 -550 0 0
-1575z"/>
<path d="M22560 7215 l-1465 -1465 388 -387 387 -388 1465 1465 1465 1465
-388 388 -387 387 -1465 -1465z"/>
<path d="M2849 6399 c-737 -44 -1398 -358 -1948 -924 -407 -420 -668 -877
-801 -1405 -105 -418 -127 -911 -59 -1357 96 -632 379 -1203 828 -1666 403
-417 823 -682 1313 -831 571 -173 1274 -177 1848 -10 715 207 1340 700 1747
1379 119 197 216 411 299 658 l43 127 -634 0 -633 0 -68 -112 c-416 -696
-1031 -1029 -1801 -977 -272 18 -486 76 -723 196 -181 91 -325 198 -486 358
-375 373 -561 763 -593 1243 -43 650 197 1223 691 1647 265 228 551 370 874
436 169 34 484 39 658 9 223 -38 418 -106 631 -221 297 -160 550 -418 762
-776 l54 -93 634 0 633 0 -24 81 c-150 487 -352 850 -671 1204 -147 164 -480
447 -682 579 -544 359 -1136 501 -1892 455z"/>
<path d="M6740 3235 l0 -3175 605 0 605 0 -2 3172 -3 3173 -602 3 -603 2 0
-3175z"/>
<path d="M10407 5159 c-722 -74 -1192 -362 -1436 -880 -56 -120 -104 -264
-132 -396 -19 -90 -49 -321 -49 -375 l0 -28 604 0 605 0 7 48 c20 142 81 267
189 388 81 90 154 139 265 178 79 28 98 30 270 35 221 7 359 -1 460 -28 288
-74 401 -182 429 -408 19 -155 -13 -259 -109 -353 -96 -95 -105 -97 -765 -216
-775 -139 -1008 -198 -1263 -319 -143 -69 -242 -137 -360 -249 -116 -111 -193
-213 -259 -342 -102 -199 -141 -372 -150 -659 -11 -367 29 -591 146 -823 196
-388 552 -605 1101 -673 197 -24 561 5 837 67 320 71 655 221 849 380 23 19
44 34 48 34 3 0 6 -110 6 -245 l0 -245 605 0 606 0 -4 1922 -3 1923 -22 114
c-25 131 -77 291 -123 383 -80 160 -225 321 -372 412 -166 104 -539 240 -815
297 -253 52 -350 61 -722 64 -195 2 -395 -1 -443 -6z m1160 -2981 c-5 -400
-12 -457 -71 -630 -18 -53 -48 -123 -67 -154 -119 -201 -402 -375 -704 -435
-43 -9 -135 -14 -235 -14 -144 0 -174 3 -237 23 -128 40 -202 92 -274 195 -67
96 -99 198 -106 342 -13 250 68 429 252 560 120 86 259 136 505 180 74 14 264
57 422 96 287 71 288 72 395 135 60 34 112 63 117 63 4 1 6 -162 3 -361z"/>
<path d="M18925 5130 c-500 -32 -953 -208 -1355 -528 -118 -94 -343 -319 -434
-432 -290 -366 -469 -796 -528 -1270 -17 -134 -17 -554 0 -680 77 -577 303
-1033 728 -1466 149 -151 256 -241 418 -349 220 -147 448 -248 711 -315 200
-51 342 -71 565 -77 510 -15 962 99 1379 346 556 330 974 867 1137 1461 142
518 124 1162 -47 1646 -235 667 -779 1231 -1439 1494 -337 134 -743 195 -1135
170z m505 -1225 c231 -46 431 -156 615 -339 163 -162 266 -324 339 -534 80
-230 99 -445 57 -641 -65 -307 -177 -531 -376 -754 -191 -215 -421 -337 -720
-383 -134 -21 -394 -13 -515 15 -178 41 -357 124 -490 226 -90 70 -211 203
-288 319 -115 172 -173 300 -220 485 -23 95 -26 125 -27 286 0 193 11 276 52
410 68 218 148 347 333 539 233 241 458 351 793 386 111 12 355 4 447 -15z"/>
<path d="M15923 5050 c-212 -58 -270 -78 -371 -129 -273 -137 -497 -324 -670
-559 l-47 -64 -3 306 -2 306 -575 0 -575 0 0 -2425 0 -2425 605 0 605 0 0
1268 c0 1302 3 1419 41 1605 24 122 50 191 98 264 20 32 53 84 72 116 94 161
230 290 414 396 126 72 198 103 307 135 165 48 265 53 586 30 l82 -6 0 615 0
615 -107 6 c-60 4 -130 8 -158 11 -40 3 -103 -10 -302 -65z"/>
<path d="M22390 3210 l0 -550 1605 0 1605 0 0 550 0 550 -1605 0 -1605 0 0
-550z"/>
</g>
</svg>
