<?xml version="1.0" encoding="utf-8"?>
<!-- Generator: Adobe Illustrator 23.0.0, SVG Export Plug-In . SVG Version: 6.00 Build 0)  -->
<svg version="1.0" id="Layer_1" xmlns="http://www.w3.org/2000/svg" xmlns:xlink="http://www.w3.org/1999/xlink" x="0px" y="0px"
	 viewBox="0 0 620.8 216.4" style="enable-background:new 0 0 620.8 216.4;" xml:space="preserve">
<style type="text/css">
	.st0{clip-path:url(#SVGID_2_);fill:url(#SVGID_3_);}
	.st1{fill:#30AC64;}
	.st2{fill:#2BA6DD;}
	.st3{display:none;}
	.st4{display:inline;fill:#FFFFFF;}
	.st5{display:inline;}
</style>
<g>
	<g>
		<g>
			<defs>
				<path id="SVGID_1_" d="M164.5,88.6v40.6c0,8-5.8,14-16.6,14h-11c-10.8,0-16.7-6-16.7-14V88.6h-13.7v41.1
					c0,15.7,10,26.7,29.4,26.7h12.6c19.4,0,29.4-11,29.4-26.7V88.6H164.5z M208.9,135c0-5,2.6-8,9.8-8h32v12.7c0,2.4-1,3.5-3.7,3.5
					h-28.5C211.6,143.2,208.9,140,208.9,135 M199.7,88.6v13.1h40.6c7.4,0,10.4,4.1,10.4,9.4v5.1h-32.2c-16.7,0-22.8,7.2-22.8,19.5
					c0,12.8,6.7,20.7,22.7,20.7H250c11.4,0,14-3.9,14-13.6V111c0-12.8-6.7-22.3-23.6-22.3H199.7z M292.7,88.6
					c-6.8,0-9.5,2.6-9.5,10.5v57.2h13.6v-52.8c0-1.3,0.5-1.9,1.7-1.9h22.2c14.2,0,20.4,5.9,20.4,16.6v38.1h13.7v-38.1
					c0-18.7-11.2-29.6-34.1-29.6H292.7z M422.1,156.4h13.6V88.6h-13.6V156.4z M481.4,88.6c-18.1,0-29.4,11-29.4,33.9
					c0,22.8,11.3,33.9,29.4,33.9h34.9v-13.2h-33.6c-11.8,0-16.9-6-16.9-20.7c0-14.6,5.1-20.8,16.9-20.8h33.6V88.6H481.4z M544.4,135
					c0-5,2.6-8,9.8-8h32v12.7c0,2.4-1,3.5-3.7,3.5h-28.5C547.1,143.2,544.4,140,544.4,135 M535.2,88.6v13.1h40.6
					c7.4,0,10.4,4.1,10.4,9.4v5.1h-32.2c-16.7,0-22.8,7.2-22.8,19.5c0,12.8,6.7,20.7,22.7,20.7h31.7c11.4,0,14-3.9,14-13.6V111
					c0-12.8-6.7-22.3-23.6-22.3H535.2z M376.4,72.6v16h-9.2v13.1h9.2V133c0,17.7,6,23.4,20,23.4h12.2V144h-9.4
					c-6.4,0-9.1-2.6-9.1-10.1v-32.1h18.7V88.6h-18.7v-16H376.4z M79.3,69.8L66.1,95.7c-4.9,9.5-7.3,10.8-22.2,10.8h-8.3V69.8H20.4
					v86.6h15.1v-36.2h8.3c16.3,0,19.4,1.3,24.1,10.5l13.2,25.7h16.9l-14-27.2c-5.1-10-9.1-14.5-17.2-16.7c7.1-3.1,11.2-8.1,15-15.8
					l13.6-27H79.3z"/>
			</defs>
			<clipPath id="SVGID_2_">
				<use xlink:href="#SVGID_1_"  style="overflow:visible;"/>
			</clipPath>
			
				<linearGradient id="SVGID_3_" gradientUnits="userSpaceOnUse" x1="-411.8172" y1="670.2117" x2="-410.8172" y2="670.2117" gradientTransform="matrix(579.1332 0 0 -579.1332 238517.4063 388254.9375)">
				<stop  offset="0" style="stop-color:#1D9EDA"/>
				<stop  offset="1" style="stop-color:#30AC64"/>
			</linearGradient>
			<rect x="20.4" y="69.8" class="st0" width="579.1" height="86.6"/>
		</g>
		<path class="st1" d="M518.3,64.9c-4.2,2-7.8,2.4-11.7,1.7c-1.4-0.2-2.8-0.5-4.3-0.7c-3.4-0.5-6,0.5-8.2,3.2
			c-2,2.5-5.2,2.3-7.8,0.1c-0.6-0.5-1.1-1.1-1.7-1.4c-4.5-2-5.6-1.3-8.4,2.8c-1.1,1.5-1.9,3.2-3.2,4.6c-2.3,2.6-4.9,2.3-6.7-0.7
			c-0.9-1.6-1.7-3.3-2.4-5c-2-4.9-6-4.6-9.1-2.4c-5,3.5-6.1,3.4-11.4,0c-3.5-2.2-6.3-2.7-7.9,2.5c-1.1,3.7-2.3,7.5-3.5,11.2
			c-0.2,0.8-0.6,1.5-1,2.1c-1.6,2.4-3.7,2.4-4.8-0.2c-1.4-3.4-2.4-6.9-3.6-10.4c0-0.1,0-0.3,0-0.5c-1.5-6.5-3.9-7.6-10-4.7
			c-3.3,1.6-6.5,1.7-9.7-0.5c-0.9-0.6-1.8-1.2-2.8-1.9c4.4-4,9-4.5,14.4-1.7c3.1,1.6,6,1,7.1-2.8c1-3.8,2.2-7.5,3.5-11.1
			c0.6-1.8,1.1-4.2,3.4-4.2c2.6-0.1,3.2,2.5,3.9,4.3c1.2,3.5,2.1,7,3.1,10.6c1.4,5.3,5,4.5,7.9,2.5c4.5-3.1,7.2-3.2,11.4,0.1
			c3.5,2.7,7.8,1.3,9.1-2.6c0.6-1.8,1.8-3.4,2.5-5.2c1.1-2.5,4.7-2.6,6.1-0.9c1.3,1.6,2.4,3.4,3.6,5.2c1.4,2.2,3,4.3,6,3.6
			c1.3-0.3,2.6-1.1,3.7-2c2.4-2,6.5-2.3,8.4,0.1c3.1,4.1,6.9,3.6,11.2,2.8C509.7,63,513.8,62.9,518.3,64.9"/>
		<g>
			<path class="st2" d="M207.6,184.6c-1.4,1.5-3.4,2.4-5.4,2.4c-3.5,0-5.9-2.6-5.9-6.4c0-3.5,2.4-6.4,6-6.4c2.4,0,4.2,1.4,5.1,3.5
				l-1.2,0.7l-1.2-1.2c-0.9-0.9-1.6-1.3-2.8-1.3c-2.6,0-4.1,2-4.1,4.8c0,3,1.6,4.8,4.4,4.8c0.9,0,1.9-0.3,2.9-0.8l1.6-0.8
				L207.6,184.6z"/>
			<path class="st2" d="M226.1,187c-3.3,0-6.1-2.6-6.1-6.4s2.8-6.4,6.1-6.4c3.3,0,6.1,2.6,6.1,6.4S229.4,187,226.1,187z
				 M226.1,175.8c-2.6,0-4.3,1.7-4.3,4.8c0,3.1,1.8,4.7,4.3,4.7c2.6,0,4.3-1.7,4.3-4.7C230.4,177.5,228.6,175.8,226.1,175.8z"/>
			<path class="st2" d="M247.2,186.8h-1.7v-12.5h1.2c0.2,0,0.3,0,0.4,0.2l5.4,6.7c0.8,1.1,1.8,2.3,2.3,2.9v-9.8h1.7v12.5h-1.2
				c-0.2,0-0.3,0-0.4-0.2l-5.4-6.7c-0.8-1-1.9-2.4-2.3-2.9V186.8z"/>
			<path class="st2" d="M271.6,185c1.1,0.3,2.1,0.5,2.9,0.5c1.8,0,2.8-0.8,2.8-2.2c0-1.1-0.6-1.6-2.3-2.2l-1.5-0.5
				c-2.2-0.8-3.4-1.6-3.4-3.4c0-2,1.9-3.1,4.4-3.1c1.2,0,2.6,0.3,3.8,0.8l-0.3,1.1l-1.1-0.2c-0.8-0.1-1.8-0.2-2.4-0.2
				c-1.8,0-2.8,0.4-2.8,1.5c0,0.9,0.6,1.3,2.3,1.9l1.4,0.5c2.2,0.8,3.5,1.6,3.5,3.7c0,2.2-1.8,3.7-4.5,3.7c-1.5,0-3.4-0.5-4.5-1.2
				l0.4-1.1L271.6,185z"/>
			<path class="st2" d="M302.7,182c0,1.6-0.4,2.7-1.2,3.5c-0.9,0.9-2.3,1.5-4,1.5c-1.7,0-3.1-0.6-4-1.4c-0.8-0.8-1.2-1.9-1.2-3.5
				v-7.7h1.8v7.7c0,1.1,0.2,1.8,0.7,2.4c0.5,0.6,1.5,0.9,2.7,0.9c1.2,0,2.2-0.3,2.7-0.9c0.5-0.5,0.7-1.3,0.7-2.4v-7.7h1.7V182z"/>
			<path class="st2" d="M316.7,174.3h1.8v11h6.1v1.5h-7.9V174.3z"/>
			<path class="st2" d="M338.9,175.8h-4.2v-1.5h10.2v1.5h-4.2v11h-1.8V175.8z"/>
			<path class="st2" d="M358,174.3h1.8v12.5H358V174.3z"/>
			<path class="st2" d="M375.5,186.8h-1.7v-12.5h1.2c0.2,0,0.3,0,0.4,0.2l5.4,6.7c0.8,1.1,1.8,2.3,2.3,2.9v-9.8h1.7v12.5h-1.2
				c-0.2,0-0.3,0-0.4-0.2l-5.4-6.7c-0.8-1-1.9-2.4-2.3-2.9V186.8z"/>
			<path class="st2" d="M408.3,178.1l-1.2-1.1c-0.9-0.8-1.7-1.2-2.9-1.2c-2.7,0-4.2,1.8-4.2,4.8c0,3.2,1.7,4.8,4.4,4.8
				c1,0,2.5-0.3,3.6-0.9c0.2-0.1,0.2-0.2,0.2-0.4v-2.2h-2.4v-1.3h3.8c0.2,0,0.3,0.1,0.3,0.2v6.1h-1.2l-0.3-1.1l-1.1,0.5
				c-1.1,0.5-2,0.8-3.2,0.8c-3.6,0-5.9-2.8-5.9-6.4c0-3.9,2.7-6.5,6.1-6.5c2.4,0,4.3,1.4,5.2,3.2L408.3,178.1z"/>
			<path class="st2" d="M440.4,185c1.1,0.3,2.1,0.5,2.9,0.5c1.8,0,2.8-0.8,2.8-2.2c0-1.1-0.6-1.6-2.3-2.2l-1.5-0.5
				c-2.2-0.8-3.4-1.6-3.4-3.4c0-2,1.9-3.1,4.4-3.1c1.2,0,2.6,0.3,3.8,0.8l-0.3,1.1l-1.1-0.2c-0.8-0.1-1.8-0.2-2.4-0.2
				c-1.8,0-2.8,0.4-2.8,1.5c0,0.9,0.6,1.3,2.3,1.9l1.4,0.5c2.2,0.8,3.5,1.6,3.5,3.7c0,2.2-1.8,3.7-4.5,3.7c-1.5,0-3.4-0.5-4.5-1.2
				l0.4-1.1L440.4,185z"/>
			<path class="st2" d="M469.5,174.3v1.5H463v3.9h5.8v1.4H463v4.3h6.7v1.5h-8.4v-12.5H469.5z"/>
			<path class="st2" d="M488.9,182.4c-0.1-0.2-0.2-0.2-0.4-0.2H485v4.6h-1.8v-12.5h4.5c1.8,0,3,0.3,3.8,1.2c0.6,0.6,1,1.6,1,2.7
				c0,1.7-0.9,3-2.1,3.8l2.9,4.9h-1.6c-0.2,0-0.3-0.1-0.4-0.2L488.9,182.4z M485,180.8h4.1c0.5,0,0.8-0.2,1-0.4
				c0.4-0.5,0.7-1.4,0.7-2.1c0-0.8-0.2-1.4-0.6-1.8c-0.5-0.5-1.2-0.7-2.4-0.7H485V180.8z"/>
			<path class="st2" d="M516.8,174.3l-4.9,12.5h-1.8c-0.2,0-0.3,0-0.4-0.2l-5-12.3h1.6c0.2,0,0.2,0,0.3,0.2l2.6,6.6
				c0.6,1.5,1.3,3.3,1.6,4.3h0c0.3-0.9,0.9-2.8,1.5-4.2l2.5-6.7c0.1-0.1,0.1-0.2,0.2-0.2H516.8z"/>
			<path class="st2" d="M529.7,174.3h1.8v12.5h-1.8V174.3z"/>
			<path class="st2" d="M556.1,184.6c-1.4,1.5-3.4,2.4-5.4,2.4c-3.5,0-5.9-2.6-5.9-6.4c0-3.5,2.4-6.4,6-6.4c2.4,0,4.2,1.4,5.1,3.5
				l-1.2,0.7l-1.2-1.2c-0.9-0.9-1.6-1.3-2.8-1.3c-2.6,0-4.1,2-4.1,4.8c0,3,1.6,4.8,4.4,4.8c0.9,0,1.9-0.3,2.9-0.8l1.6-0.8
				L556.1,184.6z"/>
			<path class="st2" d="M577.6,174.3v1.5h-6.5v3.9h5.8v1.4h-5.8v4.3h6.7v1.5h-8.4v-12.5H577.6z"/>
			<path class="st2" d="M592.5,185c1.1,0.3,2.1,0.5,2.9,0.5c1.8,0,2.8-0.8,2.8-2.2c0-1.1-0.6-1.6-2.3-2.2l-1.5-0.5
				c-2.2-0.8-3.4-1.6-3.4-3.4c0-2,1.9-3.1,4.4-3.1c1.2,0,2.6,0.3,3.8,0.8L599,176l-1.1-0.2c-0.8-0.1-1.8-0.2-2.4-0.2
				c-1.8,0-2.8,0.4-2.8,1.5c0,0.9,0.6,1.3,2.3,1.9l1.4,0.5c2.2,0.8,3.5,1.6,3.5,3.7c0,2.2-1.8,3.7-4.5,3.7c-1.5,0-3.4-0.5-4.5-1.2
				l0.4-1.1L592.5,185z"/>
		</g>
	</g>
</g>
<g class="st3">
	<path class="st4" d="M35.2,71.1v36.8h8.4c14.9,0,17.4-1.3,22.3-10.8l13.2-26h16.3l-13.6,27c-3.9,7.7-8,12.7-15,15.8
		c8.1,2.2,12.1,6.7,17.2,16.7l14,27.3H81l-13.2-25.7c-4.8-9.3-7.8-10.5-24.2-10.5h-8.4v36.3H20V71.1H35.2z M120.1,90v40.6
		c0,8,5.9,14,16.7,14h11.1c10.8,0,16.6-6,16.6-14V90h13.4v41.2c0,15.7-10,26.8-29.5,26.8h-12.6c-19.4,0-29.5-11.1-29.5-26.8V90
		H120.1z M240.5,90c17,0,23.7,9.5,23.7,22.4v31.9c0,9.8-2.6,13.6-14,13.6h-31.8c-16.1,0-22.8-7.8-22.8-20.7
		c0-12.3,6.2-19.6,22.9-19.6h32.3v-5.1c0-5.3-3-9.4-10.4-9.4h-40.6V90H240.5z M250.8,141.2v-12.7h-32c-7.2,0-9.8,3-9.8,8
		c0,5,2.7,8.2,9.5,8.2h28.6C249.8,144.7,250.8,143.7,250.8,141.2 M321,90c23,0,34.2,10.9,34.2,29.7v38.2h-13.8v-38.2
		c0-10.7-6.2-16.6-20.5-16.6h-22.3c-1.2,0-1.7,0.6-1.7,1.9v52.9h-13.6v-57.4c0-8,2.7-10.5,9.5-10.5H321z M376.8,90V74h13.8V90h18.8
		v13.1h-18.8v32.2c0,7.6,2.7,10.2,9.1,10.2h9.4v12.5h-12.2c-14,0-20.1-5.7-20.1-23.4v-31.4h-9.3V90H376.8z M436.3,157.9h-13.6V90
		h13.6V157.9z M517,90v13.1h-33.7c-11.8,0-17,6.2-17,20.8c0,14.7,5.1,20.7,17,20.7H517v13.2h-35c-18.1,0-29.5-11.1-29.5-34
		c0-22.9,11.3-34,29.5-34H517z M576.7,90c17,0,23.7,9.5,23.7,22.4v31.9c0,9.8-2.6,13.6-14,13.6h-31.8c-16.1,0-22.8-7.8-22.8-20.7
		c0-12.3,6.2-19.6,22.9-19.6H587v-5.1c0-5.3-3-9.4-10.4-9.4H536V90H576.7z M587,141.2v-12.7h-32c-7.2,0-9.8,3-9.8,8
		c0,5,2.7,8.2,9.5,8.2h28.6C586,144.7,587,143.7,587,141.2"/>
	<path class="st4" d="M519,66.3c-4.2,2-7.9,2.4-11.7,1.7c-1.4-0.2-2.9-0.5-4.3-0.7c-3.4-0.5-6,0.5-8.2,3.2c-2.1,2.5-5.2,2.3-7.8,0.1
		c-0.6-0.5-1.1-1.1-1.7-1.4c-4.5-2-5.6-1.3-8.4,2.8c-1.1,1.5-1.9,3.2-3.2,4.6c-2.3,2.6-4.9,2.3-6.7-0.7c-0.9-1.6-1.8-3.3-2.4-5
		c-2-4.9-6-4.6-9.1-2.4c-5,3.6-6.1,3.4-11.4,0c-3.5-2.3-6.3-2.7-7.9,2.5c-1.2,3.7-2.3,7.5-3.5,11.2c-0.2,0.8-0.6,1.5-1.1,2.2
		c-1.6,2.4-3.7,2.4-4.8-0.2c-1.4-3.4-2.4-6.9-3.6-10.4c0-0.1,0-0.3,0-0.5c-1.5-6.5-3.9-7.6-10-4.7c-3.3,1.6-6.6,1.7-9.7-0.5
		c-0.9-0.6-1.8-1.2-2.8-1.9c4.4-4,9-4.6,14.4-1.7c3.1,1.6,6,1,7.1-2.8c1-3.8,2.2-7.5,3.5-11.2c0.6-1.8,1.1-4.2,3.4-4.2
		c2.6-0.1,3.3,2.5,3.9,4.3c1.2,3.5,2.1,7.1,3.1,10.6c1.4,5.3,5,4.5,8,2.5c4.5-3.1,7.2-3.2,11.4,0.1c3.5,2.7,7.8,1.3,9.1-2.6
		c0.6-1.8,1.8-3.4,2.6-5.2c1.1-2.5,4.7-2.6,6.1-0.9c1.3,1.6,2.5,3.4,3.6,5.2c1.5,2.2,3,4.3,6,3.6c1.3-0.3,2.6-1.1,3.7-2
		c2.5-2,6.5-2.3,8.4,0.1c3.1,4.1,7,3.6,11.2,2.8C510.3,64.3,514.5,64.2,519,66.3"/>
	<g class="st5">
		<path class="st2" d="M207.7,184.4c-1.4,1.5-3.4,2.4-5.4,2.4c-3.5,0-6-2.6-6-6.5c0-3.5,2.4-6.4,6-6.4c2.4,0,4.2,1.4,5.1,3.5
			l-1.2,0.7L205,177c-0.9-0.9-1.6-1.3-2.8-1.3c-2.6,0-4.1,2-4.1,4.8c0,3,1.6,4.8,4.4,4.8c0.9,0,1.9-0.3,2.9-0.8l1.6-0.8L207.7,184.4
			z"/>
		<path class="st2" d="M226.1,186.9c-3.3,0-6.2-2.6-6.2-6.4c0-3.8,2.8-6.5,6.2-6.5s6.2,2.6,6.2,6.5
			C232.3,184.2,229.5,186.9,226.1,186.9z M226.1,175.6c-2.6,0-4.3,1.7-4.3,4.8c0,3.1,1.8,4.8,4.3,4.8s4.3-1.7,4.3-4.8
			C230.5,177.3,228.7,175.6,226.1,175.6z"/>
		<path class="st2" d="M247.3,186.7h-1.7v-12.5h1.2c0.2,0,0.3,0,0.4,0.2l5.4,6.8c0.8,1.1,1.8,2.3,2.3,2.9v-9.9h1.7v12.5h-1.2
			c-0.2,0-0.3,0-0.4-0.2l-5.4-6.8c-0.8-1-1.9-2.4-2.3-2.9V186.7z"/>
		<path class="st2" d="M271.8,184.9c1.1,0.3,2.1,0.5,2.9,0.5c1.8,0,2.8-0.8,2.8-2.2c0-1.1-0.6-1.6-2.3-2.2l-1.5-0.5
			c-2.2-0.8-3.4-1.6-3.4-3.4c0-2,1.9-3.1,4.4-3.1c1.2,0,2.6,0.3,3.9,0.8l-0.3,1.1l-1.1-0.2c-0.8-0.1-1.8-0.2-2.4-0.2
			c-1.8,0-2.8,0.4-2.8,1.5c0,0.9,0.6,1.3,2.3,1.9l1.4,0.5c2.2,0.8,3.5,1.6,3.5,3.7c0,2.2-1.8,3.7-4.5,3.7c-1.5,0-3.4-0.5-4.6-1.2
			l0.4-1.1L271.8,184.9z"/>
		<path class="st2" d="M303,181.9c0,1.6-0.4,2.7-1.2,3.5c-0.9,0.9-2.3,1.5-4,1.5c-1.7,0-3.1-0.6-4-1.4c-0.8-0.8-1.2-1.9-1.2-3.5
			v-7.8h1.8v7.7c0,1.1,0.2,1.9,0.7,2.4c0.5,0.6,1.5,0.9,2.7,0.9s2.2-0.3,2.7-0.9c0.5-0.5,0.7-1.3,0.7-2.4v-7.7h1.7V181.9z"/>
		<path class="st2" d="M316.9,174.2h1.8v11.1h6.1v1.5h-7.9V174.2z"/>
		<path class="st2" d="M339.2,175.6H335v-1.5h10.3v1.5H341v11.1h-1.8V175.6z"/>
		<path class="st2" d="M358.3,174.2h1.8v12.5h-1.8V174.2z"/>
		<path class="st2" d="M375.9,186.7h-1.7v-12.5h1.2c0.2,0,0.3,0,0.4,0.2l5.4,6.8c0.8,1.1,1.8,2.3,2.3,2.9v-9.9h1.7v12.5H384
			c-0.2,0-0.3,0-0.4-0.2l-5.4-6.8c-0.8-1-1.9-2.4-2.3-2.9V186.7z"/>
		<path class="st2" d="M408.8,177.9l-1.2-1.1c-0.9-0.8-1.7-1.2-2.9-1.2c-2.7,0-4.3,1.9-4.3,4.8c0,3.2,1.7,4.8,4.4,4.8
			c1,0,2.5-0.3,3.6-0.9c0.2-0.1,0.2-0.2,0.2-0.4v-2.2h-2.4v-1.3h3.8c0.2,0,0.3,0.1,0.3,0.2v6.1h-1.2l-0.3-1.2l-1.1,0.5
			c-1.1,0.5-2,0.8-3.2,0.8c-3.6,0-6-2.8-6-6.4c0-3.9,2.7-6.5,6.1-6.5c2.4,0,4.3,1.4,5.2,3.2L408.8,177.9z"/>
		<path class="st2" d="M441,184.9c1.1,0.3,2.1,0.5,2.9,0.5c1.8,0,2.8-0.8,2.8-2.2c0-1.1-0.6-1.6-2.3-2.2l-1.5-0.5
			c-2.2-0.8-3.4-1.6-3.4-3.4c0-2,1.9-3.1,4.4-3.1c1.2,0,2.6,0.3,3.9,0.8l-0.3,1.1l-1.1-0.2c-0.8-0.1-1.8-0.2-2.4-0.2
			c-1.8,0-2.8,0.4-2.8,1.5c0,0.9,0.6,1.3,2.3,1.9l1.4,0.5c2.2,0.8,3.5,1.6,3.5,3.7c0,2.2-1.8,3.7-4.5,3.7c-1.5,0-3.4-0.5-4.6-1.2
			l0.4-1.1L441,184.9z"/>
		<path class="st2" d="M470.1,174.2v1.5h-6.5v3.9h5.8v1.4h-5.8v4.3h6.7v1.5h-8.4v-12.5H470.1z"/>
		<path class="st2" d="M489.5,182.3c-0.1-0.2-0.2-0.2-0.4-0.2h-3.6v4.6h-1.8v-12.5h4.5c1.8,0,3,0.3,3.8,1.2c0.6,0.6,1,1.6,1,2.7
			c0,1.7-0.9,3-2.2,3.8l2.9,4.9h-1.6c-0.2,0-0.3-0.1-0.4-0.2L489.5,182.3z M485.6,180.7h4.1c0.5,0,0.8-0.2,1-0.4
			c0.4-0.5,0.7-1.4,0.7-2.2c0-0.8-0.2-1.4-0.6-1.8c-0.5-0.5-1.2-0.7-2.4-0.7h-2.9V180.7z"/>
		<path class="st2" d="M517.5,174.2l-4.9,12.5h-1.8c-0.2,0-0.3,0-0.4-0.2l-5-12.3h1.6c0.2,0,0.2,0,0.3,0.2l2.6,6.6
			c0.6,1.5,1.3,3.3,1.6,4.3h0c0.3-0.9,0.9-2.8,1.5-4.2l2.6-6.7c0.1-0.1,0.1-0.2,0.2-0.2H517.5z"/>
		<path class="st2" d="M530.4,174.2h1.8v12.5h-1.8V174.2z"/>
		<path class="st2" d="M556.9,184.4c-1.4,1.5-3.4,2.4-5.4,2.4c-3.5,0-5.9-2.6-5.9-6.5c0-3.5,2.4-6.4,6-6.4c2.4,0,4.2,1.4,5.1,3.5
			l-1.2,0.7l-1.2-1.2c-0.9-0.9-1.6-1.3-2.8-1.3c-2.6,0-4.1,2-4.1,4.8c0,3,1.6,4.8,4.4,4.8c0.9,0,1.9-0.3,2.9-0.8l1.6-0.8
			L556.9,184.4z"/>
		<path class="st2" d="M578.4,174.2v1.5h-6.5v3.9h5.8v1.4h-5.8v4.3h6.7v1.5h-8.4v-12.5H578.4z"/>
		<path class="st2" d="M593.3,184.9c1.1,0.3,2.1,0.5,2.9,0.5c1.8,0,2.8-0.8,2.8-2.2c0-1.1-0.6-1.6-2.3-2.2l-1.5-0.5
			c-2.2-0.8-3.4-1.6-3.4-3.4c0-2,1.9-3.1,4.4-3.1c1.2,0,2.6,0.3,3.9,0.8l-0.3,1.1l-1.1-0.2c-0.8-0.1-1.8-0.2-2.4-0.2
			c-1.8,0-2.8,0.4-2.8,1.5c0,0.9,0.6,1.3,2.3,1.9l1.4,0.5c2.2,0.8,3.5,1.6,3.5,3.7c0,2.2-1.8,3.7-4.5,3.7c-1.5,0-3.4-0.5-4.6-1.2
			l0.4-1.1L593.3,184.9z"/>
	</g>
</g>
</svg>
